<?xml version="1.0" encoding="UTF-8"?>
<svg width="128px" height="128px" version="1.1" viewBox="0 0 232.40819 232.1633" xmlns="http://www.w3.org/2000/svg" xmlns:xlink="http://www.w3.org/1999/xlink"><g transform="translate(-9.4593612,-11.992969)" fill="#ce050b"><path d="m72.695929 73.877714 106.405991-0.05191 0.0638 102.735976-53.81185 27.09175-52.662625-30.2763z" stroke="#fff" stroke-width="3"/><path d="m223.03312 76.83342a4.3368807 4.3368807 0 0 1-4.33688 4.33688 4.3368807 4.3368807 0 0 1-4.33688-4.33688 4.3368807 4.3368807 0 0 1 4.33688-4.336881 4.3368807 4.3368807 0 0 1 4.33688 4.336881z"/><path d="m39.301873 73.822487a4.3368807 4.3368807 0 0 1-4.33688 4.336881 4.3368807 4.3368807 0 0 1-4.336881-4.336881 4.3368807 4.3368807 0 0 1 4.336881-4.336881 4.3368807 4.3368807 0 0 1 4.33688 4.336881z"/><g stroke-width=".264583" aria-label="PENISTONE FOOTPATH RUNNERS &amp; AC"><path d="m61.760264 45.75549 3.585685-2.695622c2.569421-1.931623 2.849019-4.992925 0.715585-7.830794-2.104603-2.799518-4.849318-3.137048-7.763885-0.945954l-6.174281 4.641659 10.508602 13.978419 2.876218-2.162264zm-1.801887-2.396848-3.156905-4.199278 2.68447-2.018113c1.533983-1.153208 2.747978-1.015449 3.814695 0.403486 1.081132 1.438108 0.876193 2.642584-0.65779 3.795792z"/><path d="m75.896997 34.889279 7.449823-3.820029-1.368205-2.668274-7.449823 3.820028-1.806031-3.522123 8.047517-4.126506-1.368205-2.668275-11.249447 5.768352 7.979372 15.56138 11.633679-5.965374-1.368205-2.668275-8.431749 4.323528z"/><path d="m101.32151 32.829358 3.44492-1.039476-5.05185-16.742332-3.444924 1.039476 3.4372 11.391216-10.074421-9.388492-3.536789 1.067195 5.051853 16.742332 3.444925-1.039476-3.49264-11.574946z"/><path d="m109.43627 13.413117-3.55195 0.57588 2.79878 17.262496 3.55195-0.57588z"/><path d="m128.81125 17.359419c-0.15743-3.61898-2.65203-5.51944-7.06299-5.356814-4.1952 0.154672-6.54396 2.209693-6.41846 5.613804 0.0999 2.708905 1.51492 3.97702 5.08762 4.517446l2.46288 0.389301c2.41406 0.367096 3.32579 1.005627 3.37794 2.420011 0.0539 1.462329-1.25585 2.398811-3.43736 2.47924-2.44521 0.09015-3.84965-0.890293-4.03845-2.755737l-3.50001 0.12904c0.35364 3.731773 2.99383 5.674874 7.45274 5.510481 4.50685-0.166161 7.09092-2.349884 6.95922-5.921803-0.10164-2.756851-1.54508-4.143945-4.80436-4.647915l-2.75232-0.42664c-2.58363-0.408855-3.34535-0.884881-3.39219-2.155429-0.0486-1.318494 1.07114-2.199959 2.94101-2.268898 2.27739-0.08396 3.5833 0.828096 3.76856 2.59765z"/><path d="m142.44638 16.347615 5.07023 0.633403 0.37171-2.975484-13.90146-1.736653-0.37171 2.975484 5.26065 0.657192-1.79613 14.377538 3.57058 0.446058z"/><path d="m160.66878 17.124187c-2.33732-0.723931-4.50349-0.541001-6.39974 0.554264-1.98628 1.142718-3.55807 3.21744-4.33168 5.715169s-0.65679 5.120571 0.34297 7.163031c0.96102 2.00535 2.60583 3.343526 4.98898 4.081652 2.38316 0.738125 4.4964 0.563916 6.42266-0.547167 1.91916-1.088168 3.56517-3.240355 4.29619-5.600594 0.8091-2.612304 0.69228-5.235146-0.30747-7.277606-0.97684-2.035362-2.58292-3.336429-5.01191-4.088749zm-0.88555 2.94021c2.81854 0.872976 3.89617 3.718064 2.77479 7.338626-1.0646 3.437242-3.63045 5.15385-6.38024 4.302167-2.79563-0.865878-3.89617-3.718064-2.80318-7.246966s3.61301-5.259705 6.40863-4.393827z"/><path d="m175.99705 43.119386 3.16775 1.706861 8.29534-15.395264-3.16775-1.706861-5.64402 10.474693-0.45917-13.763245-3.25223-1.752378-8.29534 15.395265 3.16775 1.706861 5.73505-10.64364z"/><path d="m190.24587 43.672327 6.5367 5.231064 1.87359-2.341226-6.5367-5.231064 2.47314-3.090417 7.06114 5.650748 1.87359-2.341225-9.87061-7.899057-10.92678 13.654026 10.20775 8.168854 1.87359-2.341225-7.39828-5.920546z"/><path d="m18.351938 112.97573-0.925812 7.59625 2.976587 0.36278 0.925812-7.59625 3.929094 0.47887-1.050608 8.62019 2.976586 0.36278 1.485944-12.1921-17.359453-2.11573-0.435335 3.57191z"/><path d="m27.771731 133.97443c-0.152608-2.44211-1.09232-4.40238-2.789208-5.78656-1.773204-1.45151-4.270666-2.18476-6.880366-2.02168-2.609699 0.16308-5.020388 1.20305-6.575149 2.86252-1.5338119 1.6101-2.2012197 3.62273-2.0456197 6.11272 0.1556001 2.48999 1.0683777 4.40388 2.7907047 5.8105 1.698385 1.40811 4.294608 2.18327 6.760654 2.02916 2.72941-0.17056 5.140099-1.21052 6.694861-2.87 1.556257-1.63554 2.202715-3.59879 2.044123-6.13666zm-3.063105 0.21545c0.184027 2.94489-2.093493 4.96199-5.87636 5.19839-3.59133 0.22442-6.106738-1.56528-6.286276-4.43835-0.182531-2.92094 2.093492-4.96199 5.780591-5.1924 3.687098-0.23041 6.199514 1.51141 6.382045 4.43236z"/><path d="m31.031025 153.56574c-0.638517-2.36209-1.951717-4.0945-3.891403-5.11086-2.027939-1.06705-4.621645-1.28537-7.145837-0.60303-2.524191 0.68233-4.677817 2.18395-5.868802 4.12114-1.180347 1.88461-1.431233 3.99012-0.780196 6.39852 0.651037 2.40841 1.92856 4.10076 3.897663 5.13402 1.945945 1.03952 4.644803 1.27911 7.030048 0.63433 2.63998-0.71363 4.793606-2.21524 5.984591-4.15243 1.197244-1.91404 1.437493-3.96697 0.773936-6.42169zm-2.957928 0.82443c0.769977 2.8484-1.057517 5.2807-4.716437 6.26978-3.473658 0.93899-6.296488-0.31079-7.047685-3.08971-0.763717-2.82524 1.057517-5.2807 4.623806-6.24474 3.566289-0.96403 6.376599 0.23943 7.140316 3.06467z"/><path d="m35.065721 173.24787 2.205851 4.60897 2.704794-1.29451-6.047968-12.6368-2.704794 1.29451 2.288701 4.78208-13.069565 6.25509 1.553416 3.24575z"/><path d="m34.932995 189.27803 2.575137 3.67317c1.845285 2.63212 4.895623 3.01316 7.802731 0.97508 2.867823-2.01053 3.296258-4.74254 1.203098-7.72821l-4.434193-6.32493-14.319474 10.0389 2.065618 2.9464zm2.455328-1.72134 4.301735-3.01581 1.92791 2.74997c1.101663 1.57141 0.92369 2.78016-0.529864 3.7992-1.473197 1.03281-2.670208 0.78801-3.771871-0.7834z"/><path d="m48.98175 209.97379-1.696584 3.2989 2.598561 2.62589 8.178127-16.59788-2.801046-2.8305-16.800625 7.88472 2.581688 2.60883 3.333339-1.64493zm1.439574-2.80832-3.206016-3.23972 6.462597-3.18917z"/><path d="m68.447326 211.49815 4.159004 2.96834 1.741986-2.44073-11.40309-8.13856-1.741986 2.44073 4.31521 3.07983-8.417274 11.79361 2.928876 2.09038z"/><path d="m82.893674 226.94711-3.37843 7.18574 3.256381 1.53102 7.440712-15.82602-3.27809-1.54122-2.78644 5.92662-6.252252-2.93954 2.786439-5.92662-3.256381-1.53101-7.440712 15.82602 3.256381 1.53101 3.378431-7.18575z"/><path d="m106.34785 235.03443 4.0789 0.62228c1.54144 0.23516 2.11138 0.95304 1.89431 2.37591l-0.10854 0.71144c-0.0924 0.44695-0.15757 0.87381-0.19737 1.13467-0.24963 1.63631-0.23075 2.14878 0.0695 3.04391l3.81803 0.58248 0.0977-0.64029c-0.49841-0.3915-0.65757-0.77978-0.5418-1.53864 0.68299-5.1131 0.62431-5.36471-1.43642-6.64976 2.06036-0.4622 3.24611-1.71302 3.5681-3.82361 0.20984-1.37544-0.0727-2.70467-0.77247-3.68502-0.65957-0.92568-1.69255-1.47154-3.16285-1.69584l-9.27238-1.41459-2.63743 17.28788 3.55717 0.54268zm0.45224-2.96431 0.68739-4.50576 4.29233 0.65484c1.01972 0.15557 1.4084 0.31193 1.80471 0.73639 0.37259 0.42084 0.49557 1.04626 0.37257 1.85255-0.12663 0.83001-0.44136 1.46146-0.92249 1.75205-0.4538 0.2705-0.92246 0.32033-1.94219 0.16477z"/><path d="m133.04359 225.99454 0.45326 11.84184c0.0807 2.10948-0.95944 3.15757-3.21274 3.24382-2.25331 0.0862-3.37056-0.87927-3.4513-2.98874l-0.45326-11.84185-3.5957 0.13763 0.45326 11.84184c0.0752 1.96566 0.65582 3.33581 1.87079 4.34559 1.31452 1.10199 3.18417 1.6546 5.29365 1.57386 2.10948-0.0807 3.93142-0.77465 5.15786-1.9739 1.13422-1.0997 1.60837-2.51022 1.53314-4.47587l-0.45326-11.84185z"/><path d="m155.68945 239.8171 3.50314-0.82221-3.99594-17.02526-3.50314 0.82221 2.71877 11.58371-9.46815-9.99959-3.59656 0.84413 3.99594 17.02526 3.50314-0.82221-2.76262-11.77054z"/><path d="m176.40454 232.08066 3.28293-1.47323-7.15989-15.95503-3.28293 1.47323 4.87148 10.85555-11.19659-8.01713-3.37047 1.51252 7.15989 15.95502 3.28293-1.47323-4.95005-11.03063z"/><path d="m185.44313 218.24624 6.88036-4.77002-1.70846-2.46431-6.88036 4.77002-2.25517-3.25289 7.43237-5.15272-1.70847-2.46431-10.38954 7.20287 9.96375 14.37187 10.7444-7.44889-1.70846-2.46432-7.78722 5.39874z"/><path d="m201.08221 206.57742 2.90234-2.93275c1.09682-1.10831 2.01261-1.14701 3.03567-0.13456l0.51152 0.50622c0.3071 0.33766 0.61401 0.64139 0.80157 0.82701 1.17651 1.16431 1.60208 1.45046 2.50259 1.73414l2.71673-2.7452-0.46037-0.4556c-0.60977 0.17281-1.0174 0.0732-1.56303-0.46681-3.73343-3.55973-3.97144-3.66026-6.22276-2.7495 0.83804-1.93814 0.52388-3.6328-0.99365-5.13459-0.98895-0.9787-2.23013-1.532-3.43455-1.54269-1.13658-0.011-2.1856 0.50332-3.23179 1.56047l-6.59777 6.6669 12.43009 12.3012 2.53111-2.55763zm-2.13136-2.10926-3.23967-3.20608 3.05421-3.08621c0.72559-0.73318 1.08065-0.95555 1.65702-1.02641 0.5595-0.0538 1.13764 0.21459 1.71737 0.78831 0.59678 0.59059 0.92233 1.21652 0.87436 1.77655-0.0481 0.5261-0.2835 0.93444-1.00908 1.66763z"/><path d="m215.43049 180.39954c-3.01409-2.00923-6.02068-1.11751-8.49323 2.53893-2.35161 3.47759-2.07933 6.58655 0.74249 8.49471 2.24552 1.51847 4.10443 1.12485 6.64964-1.43994l1.76809-1.75818c1.72134-1.73187 2.77495-2.09088 3.9474-1.29805 1.21219 0.81971 1.19493 2.42973-0.0279 4.23808-1.37065 2.02693-2.9911 2.58181-4.60829 1.63302l-1.96192 2.9013c3.22096 1.91745 6.34792 0.93336 8.84734-2.76281 2.5263-3.73593 2.28904-7.1108-0.67188-9.11303-2.28527-1.54534-4.25698-1.19904-6.58775 1.13429l-1.96908 1.96977c-1.85516 1.8441-2.68904 2.17794-3.74225 1.46574-1.09296-0.73908-1.14346-2.16325-0.0953-3.71326 1.27659-1.88784 2.78366-2.40354 4.32138-1.5085z"/><path d="m228.83857 156.60118 0.22855 0.0729c1.00563 0.32066 1.61013 0.71484 2.40972 1.52373l-4.13651 1.60178c-0.74557-2.47865-1.50143-3.42468-3.19271-3.96396-2.10267-0.67047-4.03711 0.50041-4.81689 2.94591-0.77978 2.44551 0.26821 4.84434 2.43945 5.53666 0.84564 0.26965 1.77045 0.21203 2.72872-0.18742 0.317-0.12554 0.63399-0.25107 0.98113-0.39217 0.0603-0.0311 0.20371-0.0861 0.43028-0.16495 0.54151 3.1186 1.46133 4.41905 3.60971 5.10409 2.97117 0.94739 5.62904-0.59711 6.66388-3.84254 0.50285-1.577 0.41211-2.71381-0.38447-5.03247l1.61512-0.64323 1.17331-3.67968-4.41607 1.68888c-0.75983-1.24943-2.42162-2.43397-4.14403-3.03354l-0.11428-0.0364-0.25141-0.0802zm-0.57315 6.06161 4.89934-1.86211c0.48027 1.33654 0.60844 2.43493 0.38252 3.14344-0.39353 1.23417-2.07523 2.00725-3.44654 1.56999-0.75422-0.2405-1.30042-0.81752-1.51504-1.56579zm-3.16691-1.99178c-1.7814 0.69092-2.02354 0.73961-2.59492 0.55742-0.6628-0.21134-0.92943-0.87548-0.67436-1.67541 0.26235-0.82278 0.89535-1.1497 1.74099-0.88006 0.82279 0.26236 1.30141 0.89337 1.52829 1.99805z"/><path d="m238.22211 126.59539 3.55384-1.06368 0.0916-3.69315-17.63243 5.60971-0.0987 3.98094 17.32847 6.64484 0.091-3.66917-3.49614-1.26254zm-3.02208 0.90889-0.11301 4.55649-6.77823-2.44778z"/><path d="m227.49313 103.1603c-1.47164 0.3643-2.36765 0.82816-3.21706 1.72197-1.53288 1.61436-2.15195 3.90465-1.72641 6.48458 0.80423 4.87583 4.7833 7.33158 10.36921 6.41023 5.56223-0.91745 8.52211-4.49341 7.72959-9.29824-0.71054-4.30777-3.66427-6.73814-7.65215-6.29919l0.56999 3.45569c2.24027-0.12638 3.72116 1.03951 4.08424 3.24074 0.45287 2.74561-1.50655 4.72209-5.26994 5.34283-3.81072 0.62855-6.36014-0.67717-6.82082-3.47012-0.33965-2.05921 0.46315-3.38297 2.49162-4.20381z"/></g></g><g id="b" transform="matrix(.48621702 0 0 .48621702 36.448566 10.805788)"><path d="m69.305191 132.5309s5.418208-14.88531 15.65199-15.20207c11.251741-0.34828 15.831269 13.10415 18.850399 14.52875 5.71916 2.69863 55.4187 11.307 55.53114 25.03562l0.049 5.97581s-14.82202-5.12097-25.69654-2.49003c-10.87451 2.63093-12.52466 7.71559-22.17142 7.62789s-27.861319-5.96565-29.439886-13.85846c-1.578568-7.8928 1.212854-13.51456-0.482329-15.87331-1.371638-1.90855-12.292304-5.7442-12.292304-5.7442z" fill="#f0ee2a"/><path d="m91.891029 137.73836 7.007328-0.40308c2.039913 11.37169 23.949493 20.36688 47.677323 10.90845l4.37274 3.15131c-15.33044 6.69513-52.655794 8.35722-59.057391-13.65668z"/><circle cx="85.6175" cy="126.34885" r="2.9145458"/></g><use xlink:href="#b"/><use transform="translate(-1.6349754e-8,32.776919)" xlink:href="#b"/><use transform="translate(-1.6349754e-8,65.553839)" xlink:href="#b"/><use transform="translate(47.040832)" xlink:href="#b"/><use transform="translate(47.040832,32.776919)" xlink:href="#b"/><use transform="translate(47.040832,65.553839)" xlink:href="#b"/></svg>
